<mxfile host="app.diagrams.net" modified="2021-06-04T02:31:41.877Z" agent="5.0 (Windows NT 10.0; Win64; x64) AppleWebKit/537.36 (KHTML, like Gecko) Chrome/90.0.4430.212 Safari/537.36" etag="eYh5r6dWEJXqKjqkIlZA" version="14.7.3" type="github">
  <diagram id="C5RBs43oDa-KdzZeNtuy" name="Page-1">
    <mxGraphModel dx="858" dy="590" grid="1" gridSize="10" guides="1" tooltips="1" connect="1" arrows="1" fold="1" page="1" pageScale="1" pageWidth="827" pageHeight="1169" math="0" shadow="0">
      <root>
        <mxCell id="WIyWlLk6GJQsqaUBKTNV-0" />
        <mxCell id="WIyWlLk6GJQsqaUBKTNV-1" parent="WIyWlLk6GJQsqaUBKTNV-0" />
        <mxCell id="REBfTNrumJtzJRZc6Gil-6" value="" style="edgeStyle=orthogonalEdgeStyle;rounded=0;orthogonalLoop=1;jettySize=auto;html=1;" edge="1" parent="WIyWlLk6GJQsqaUBKTNV-1" source="WIyWlLk6GJQsqaUBKTNV-3" target="REBfTNrumJtzJRZc6Gil-1">
          <mxGeometry relative="1" as="geometry" />
        </mxCell>
        <mxCell id="WIyWlLk6GJQsqaUBKTNV-3" value="&lt;span&gt;bootstrapInstrumentation&lt;/span&gt;" style="rounded=1;whiteSpace=wrap;html=1;fontSize=12;glass=0;strokeWidth=1;shadow=0;" parent="WIyWlLk6GJQsqaUBKTNV-1" vertex="1">
          <mxGeometry x="160" y="100" width="150" height="40" as="geometry" />
        </mxCell>
        <mxCell id="REBfTNrumJtzJRZc6Gil-8" value="" style="edgeStyle=orthogonalEdgeStyle;rounded=0;orthogonalLoop=1;jettySize=auto;html=1;" edge="1" parent="WIyWlLk6GJQsqaUBKTNV-1" source="REBfTNrumJtzJRZc6Gil-0" target="REBfTNrumJtzJRZc6Gil-7">
          <mxGeometry relative="1" as="geometry" />
        </mxCell>
        <mxCell id="REBfTNrumJtzJRZc6Gil-0" value="&lt;span&gt;require(&#39;instrumentation/core/&amp;lt;内置模块&amp;gt;.js’)&lt;/span&gt;" style="rounded=1;whiteSpace=wrap;html=1;" vertex="1" parent="WIyWlLk6GJQsqaUBKTNV-1">
          <mxGeometry x="110" y="340" width="250" height="60" as="geometry" />
        </mxCell>
        <mxCell id="REBfTNrumJtzJRZc6Gil-3" value="" style="edgeStyle=orthogonalEdgeStyle;rounded=0;orthogonalLoop=1;jettySize=auto;html=1;" edge="1" parent="WIyWlLk6GJQsqaUBKTNV-1" source="REBfTNrumJtzJRZc6Gil-1" target="REBfTNrumJtzJRZc6Gil-2">
          <mxGeometry relative="1" as="geometry" />
        </mxCell>
        <mxCell id="REBfTNrumJtzJRZc6Gil-1" value="&lt;span&gt;require(&#39;instrumentation/core/globals.js’)&lt;/span&gt;" style="rounded=1;whiteSpace=wrap;html=1;" vertex="1" parent="WIyWlLk6GJQsqaUBKTNV-1">
          <mxGeometry x="120" y="180" width="230" height="60" as="geometry" />
        </mxCell>
        <mxCell id="REBfTNrumJtzJRZc6Gil-4" value="" style="edgeStyle=orthogonalEdgeStyle;rounded=0;orthogonalLoop=1;jettySize=auto;html=1;" edge="1" parent="WIyWlLk6GJQsqaUBKTNV-1" source="REBfTNrumJtzJRZc6Gil-2" target="REBfTNrumJtzJRZc6Gil-0">
          <mxGeometry relative="1" as="geometry" />
        </mxCell>
        <mxCell id="REBfTNrumJtzJRZc6Gil-2" value="require(内置模块)" style="rounded=1;whiteSpace=wrap;html=1;fontSize=12;glass=0;strokeWidth=1;shadow=0;" vertex="1" parent="WIyWlLk6GJQsqaUBKTNV-1">
          <mxGeometry x="175" y="270" width="120" height="40" as="geometry" />
        </mxCell>
        <mxCell id="REBfTNrumJtzJRZc6Gil-11" value="" style="edgeStyle=orthogonalEdgeStyle;rounded=0;orthogonalLoop=1;jettySize=auto;html=1;" edge="1" parent="WIyWlLk6GJQsqaUBKTNV-1" source="REBfTNrumJtzJRZc6Gil-7" target="REBfTNrumJtzJRZc6Gil-10">
          <mxGeometry relative="1" as="geometry" />
        </mxCell>
        <mxCell id="REBfTNrumJtzJRZc6Gil-7" value="require(&lt;span&gt;@newrelic/[koa/superagent/aws-sdk]/nr-hooks.js)&lt;/span&gt;" style="whiteSpace=wrap;html=1;rounded=1;" vertex="1" parent="WIyWlLk6GJQsqaUBKTNV-1">
          <mxGeometry x="70" y="430" width="330" height="40" as="geometry" />
        </mxCell>
        <mxCell id="REBfTNrumJtzJRZc6Gil-13" value="" style="edgeStyle=orthogonalEdgeStyle;rounded=0;orthogonalLoop=1;jettySize=auto;html=1;" edge="1" parent="WIyWlLk6GJQsqaUBKTNV-1" source="REBfTNrumJtzJRZc6Gil-10" target="REBfTNrumJtzJRZc6Gil-12">
          <mxGeometry relative="1" as="geometry" />
        </mxCell>
        <mxCell id="REBfTNrumJtzJRZc6Gil-10" value="require(instrumentation/amqblib).selfRegister&lt;br&gt;" style="whiteSpace=wrap;html=1;rounded=1;" vertex="1" parent="WIyWlLk6GJQsqaUBKTNV-1">
          <mxGeometry x="70" y="500" width="330" height="30" as="geometry" />
        </mxCell>
        <mxCell id="REBfTNrumJtzJRZc6Gil-15" value="" style="edgeStyle=orthogonalEdgeStyle;rounded=0;orthogonalLoop=1;jettySize=auto;html=1;" edge="1" parent="WIyWlLk6GJQsqaUBKTNV-1" source="REBfTNrumJtzJRZc6Gil-12" target="REBfTNrumJtzJRZc6Gil-14">
          <mxGeometry relative="1" as="geometry" />
        </mxCell>
        <mxCell id="REBfTNrumJtzJRZc6Gil-12" value="require(instrumentation/其他)" style="whiteSpace=wrap;html=1;rounded=1;" vertex="1" parent="WIyWlLk6GJQsqaUBKTNV-1">
          <mxGeometry x="70" y="560" width="330" height="30" as="geometry" />
        </mxCell>
        <mxCell id="REBfTNrumJtzJRZc6Gil-18" value="" style="edgeStyle=orthogonalEdgeStyle;rounded=0;orthogonalLoop=1;jettySize=auto;html=1;" edge="1" parent="WIyWlLk6GJQsqaUBKTNV-1" source="REBfTNrumJtzJRZc6Gil-14" target="REBfTNrumJtzJRZc6Gil-17">
          <mxGeometry relative="1" as="geometry" />
        </mxCell>
        <mxCell id="REBfTNrumJtzJRZc6Gil-14" value="require(&lt;span style=&quot;color: rgb(6 , 125 , 23) ; background-color: rgb(255 , 255 , 255) ; font-family: &amp;#34;jetbrains mono&amp;#34; , monospace ; font-size: 9.8pt&quot;&gt;instrumentation/core/domain.js&lt;/span&gt;&lt;span&gt;)，type设置为null&lt;/span&gt;" style="whiteSpace=wrap;html=1;rounded=1;" vertex="1" parent="WIyWlLk6GJQsqaUBKTNV-1">
          <mxGeometry x="70" y="630" width="330" height="30" as="geometry" />
        </mxCell>
        <mxCell id="REBfTNrumJtzJRZc6Gil-17" value="exit" style="shape=process;whiteSpace=wrap;html=1;backgroundOutline=1;rounded=1;" vertex="1" parent="WIyWlLk6GJQsqaUBKTNV-1">
          <mxGeometry x="192.5" y="690" width="85" height="20" as="geometry" />
        </mxCell>
      </root>
    </mxGraphModel>
  </diagram>
</mxfile>
